<svg xmlns="http://www.w3.org/2000/svg" xmlns:xlink="http://www.w3.org/1999/xlink" width="856" height="1440" viewBox="0 0 641.94 1080"><g id="graph0" class="graph" transform="scale(2.7551 2.7551) rotate(0) translate(4 388)"><title>%3</title><polygon fill="#fff" stroke="none" points="-4 4 -4 -388 229 -388 229 4 -4 4"/><g id="node1" class="node"><title>1</title><ellipse cx="27" cy="-366" fill="none" stroke="#000" rx="27" ry="18"/><text x="27" y="-362.3" font-family="Times,serif" font-size="14" text-anchor="middle">1</text></g><g id="node2" class="node"><title>2</title><ellipse cx="27" cy="-279" fill="none" stroke="#000" rx="27" ry="18"/><text x="27" y="-275.3" font-family="Times,serif" font-size="14" text-anchor="middle">2</text></g><g id="edge1" class="edge"><title>1-&gt;2</title><path fill="none" stroke="#000" d="M27,-347.799C27,-336.163 27,-320.548 27,-307.237"/><polygon fill="#000" stroke="#000" points="30.5 -307.175 27 -297.175 23.5 -307.175 30.5 -307.175"/><text x="37.5" y="-318.8" font-family="Times,serif" font-size="14" text-anchor="middle">100</text></g><g id="node3" class="node"><title>3</title><ellipse cx="198" cy="-192" fill="none" stroke="#000" rx="27" ry="18"/><text x="198" y="-188.3" font-family="Times,serif" font-size="14" text-anchor="middle">3</text></g><g id="edge2" class="edge"><title>1-&gt;3</title><path fill="none" stroke="#000" d="M42.6997,-351.185C49.869,-344.806 58.4307,-337.09 66,-330 106.371,-292.185 117.153,-283.341 155,-243 163.073,-234.395 171.616,-224.614 178.941,-216"/><polygon fill="#000" stroke="#000" points="181.768 -218.076 185.536 -208.174 176.415 -213.565 181.768 -218.076"/><text x="144" y="-275.3" font-family="Times,serif" font-size="14" text-anchor="middle">30</text></g><g id="edge3" class="edge"><title>2-&gt;3</title><path fill="none" stroke="#000" d="M47.968,-267.577C77.967,-252.666 133.306,-225.158 167.741,-208.041"/><polygon fill="#000" stroke="#000" points="169.464 -211.093 176.861 -203.508 166.348 -204.825 169.464 -211.093"/><text x="130" y="-231.8" font-family="Times,serif" font-size="14" text-anchor="middle">20</text></g><g id="node4" class="node"><title>4</title><ellipse cx="27" cy="-105" fill="none" stroke="#000" rx="27" ry="18"/><text x="27" y="-101.3" font-family="Times,serif" font-size="14" text-anchor="middle">4</text></g><g id="edge4" class="edge"><title>3-&gt;4</title><path fill="none" stroke="#000" d="M177.032,-180.577C147.033,-165.666 91.6939,-138.158 57.2591,-121.041"/><polygon fill="#000" stroke="#000" points="58.652 -117.825 48.139 -116.508 55.536 -124.093 58.652 -117.825"/><text x="130" y="-144.8" font-family="Times,serif" font-size="14" text-anchor="middle">10</text></g><g id="node5" class="node"><title>5</title><ellipse cx="198" cy="-18" fill="none" stroke="#000" rx="27" ry="18"/><text x="198" y="-14.3" font-family="Times,serif" font-size="14" text-anchor="middle">5</text></g><g id="edge5" class="edge"><title>3-&gt;5</title><path fill="none" stroke="#000" d="M198,-173.879C198,-144.001 198,-82.1129 198,-46.2736"/><polygon fill="#000" stroke="#000" points="201.5 -46.052 198 -36.052 194.5 -46.052 201.5 -46.052"/><text x="205" y="-101.3" font-family="Times,serif" font-size="14" text-anchor="middle">60</text></g><g id="edge6" class="edge"><title>4-&gt;2</title><path fill="none" stroke="#000" d="M27,-123.052C27,-152.88 27,-214.764 27,-250.643"/><polygon fill="#000" stroke="#000" points="23.5 -250.879 27 -260.879 30.5 -250.879 23.5 -250.879"/><text x="34" y="-188.3" font-family="Times,serif" font-size="14" text-anchor="middle">15</text></g><g id="edge7" class="edge"><title>4-&gt;5</title><path fill="none" stroke="#000" d="M47.968,-93.5773C77.967,-78.6655 133.306,-51.1578 167.741,-34.0411"/><polygon fill="#000" stroke="#000" points="169.464 -37.093 176.861 -29.508 166.348 -30.825 169.464 -37.093"/><text x="130" y="-57.8" font-family="Times,serif" font-size="14" text-anchor="middle">50</text></g></g></svg>