<svg xmlns="http://www.w3.org/2000/svg" xmlns:xlink="http://www.w3.org/1999/xlink" width="1440" height="568" viewBox="0 0 1080 426.14"><g id="graph0" class="graph" transform="scale(3.25301 3.25301) rotate(0) translate(4 127)"><title>%3</title><polygon fill="#fff" stroke="none" points="-4 4 -4 -127 328 -127 328 4 -4 4"/><g id="node1" class="node"><title>j1</title><ellipse cx="207" cy="-18" fill="none" stroke="#000" rx="27" ry="18"/><text x="201.5" y="-15.3" font-family="Times,serif" font-size="14" text-anchor="start">j</text><text x="205.5" y="-15.3" baseline-shift="sub" font-family="Times,serif" font-size="14" text-anchor="start">1</text></g><g id="node2" class="node"><title>j2</title><ellipse cx="27" cy="-18" fill="none" stroke="#000" rx="27" ry="18"/><text x="21.5" y="-15.3" font-family="Times,serif" font-size="14" text-anchor="start">j</text><text x="25.5" y="-15.3" baseline-shift="sub" font-family="Times,serif" font-size="14" text-anchor="start">2</text></g><g id="node3" class="node"><title>j3</title><ellipse cx="99" cy="-18" fill="none" stroke="#000" rx="27" ry="18"/><text x="93.5" y="-15.3" font-family="Times,serif" font-size="14" text-anchor="start">j</text><text x="97.5" y="-15.3" baseline-shift="sub" font-family="Times,serif" font-size="14" text-anchor="start">3</text></g><g id="node4" class="node"><title>j4</title><ellipse cx="279" cy="-18" fill="none" stroke="#000" rx="27" ry="18"/><text x="273.5" y="-15.3" font-family="Times,serif" font-size="14" text-anchor="start">j</text><text x="277.5" y="-15.3" baseline-shift="sub" font-family="Times,serif" font-size="14" text-anchor="start">4</text></g><g id="node5" class="node"><title>1</title><ellipse cx="108" cy="-105" fill="none" stroke="#000" rx="27" ry="18"/><text x="108" y="-101.3" font-family="Times,serif" font-size="14" text-anchor="middle">1</text></g><g id="edge1" class="edge"><title>1-&gt;j1</title><path fill="none" stroke="#000" d="M123.906,-90.3433C139.927,-76.588 164.837,-55.2004 183.208,-39.4273"/><polygon fill="#000" stroke="#000" points="185.826 -41.793 191.133 -32.623 181.266 -36.482 185.826 -41.793"/><text x="173.5" y="-57.8" font-family="Times,serif" font-size="14" text-anchor="middle">6</text></g><g id="edge2" class="edge"><title>1-&gt;j2</title><path fill="none" stroke="#000" d="M93.8909,-89.1941C81.2307,-75.9087 62.4765,-56.2284 48.045,-41.0842"/><polygon fill="#000" stroke="#000" points="50.38 -38.461 40.947 -33.636 45.312 -43.29 50.38 -38.461"/><text x="55.5" y="-57.8" font-family="Times,serif" font-size="14" text-anchor="middle">4</text></g><g id="edge3" class="edge"><title>1-&gt;j3</title><path fill="none" stroke="#000" d="M106.179,-86.799C104.947,-75.1626 103.293,-59.5479 101.884,-46.2368"/><polygon fill="#000" stroke="#000" points="105.352 -45.751 100.819 -36.175 98.391 -46.488 105.352 -45.751"/><text x="93.5" y="-57.8" font-family="Times,serif" font-size="14" text-anchor="middle">5</text></g><g id="node6" class="node"><title>2</title><ellipse cx="36" cy="-105" fill="none" stroke="#000" rx="27" ry="18"/><text x="36" y="-101.3" font-family="Times,serif" font-size="14" text-anchor="middle">2</text></g><g id="edge4" class="edge"><title>2-&gt;j2</title><path fill="none" stroke="#000" d="M34.1787,-86.799C32.9466,-75.1626 31.2933,-59.5479 29.8839,-46.2368"/><polygon fill="#000" stroke="#000" points="33.352 -45.751 28.819 -36.175 26.391 -46.488 33.352 -45.751"/><text x="3.5" y="-57.8" font-family="Times,serif" font-size="14" text-anchor="middle">3</text></g><g id="edge5" class="edge"><title>2-&gt;j3</title><path fill="none" stroke="#000" d="M47.5552,-88.4097C57.0575,-75.5891 70.6733,-57.2186 81.5105,-42.597"/><polygon fill="#000" stroke="#000" points="84.375 -44.609 87.518 -34.492 78.752 -40.441 84.375 -44.609"/><text x="74.5" y="-57.8" font-family="Times,serif" font-size="14" text-anchor="middle">6</text></g><g id="node7" class="node"><title>3</title><ellipse cx="297" cy="-105" fill="none" stroke="#000" rx="27" ry="18"/><text x="297" y="-101.3" font-family="Times,serif" font-size="14" text-anchor="middle">3</text></g><g id="edge6" class="edge"><title>3-&gt;j1</title><path fill="none" stroke="#000" d="M282.138,-89.964C267.808,-76.4296 245.93,-55.7675 229.471,-40.223"/><polygon fill="#000" stroke="#000" points="231.557 -37.379 221.884 -33.057 226.751 -42.468 231.557 -37.379"/><text x="278.5" y="-57.8" font-family="Times,serif" font-size="14" text-anchor="middle">5</text></g><g id="edge7" class="edge"><title>3-&gt;j3</title><path fill="none" stroke="#000" d="M274.672,-94.4146C239.448,-79.2931 170.857,-49.8477 130.594,-32.563"/><polygon fill="#000" stroke="#000" points="131.816 -29.279 121.247 -28.55 129.055 -35.711 131.816 -29.279"/><text x="242.5" y="-57.8" font-family="Times,serif" font-size="14" text-anchor="middle">4</text></g><g id="edge8" class="edge"><title>3-&gt;j4</title><path fill="none" stroke="#000" d="M293.357,-86.799C290.877,-75.086 287.543,-59.3423 284.712,-45.9744"/><polygon fill="#000" stroke="#000" points="288.072 -44.943 282.576 -35.885 281.223 -46.394 288.072 -44.943"/><text x="308.5" y="-57.8" font-family="Times,serif" font-size="14" text-anchor="middle">3</text></g><g id="node8" class="node"><title>4</title><ellipse cx="207" cy="-105" fill="none" stroke="#000" rx="27" ry="18"/><text x="207" y="-101.3" font-family="Times,serif" font-size="14" text-anchor="middle">4</text></g><g id="edge9" class="edge"><title>4-&gt;j1</title><path fill="none" stroke="#000" d="M207,-86.799C207,-75.1626 207,-59.5479 207,-46.2368"/><polygon fill="#000" stroke="#000" points="210.5 -46.175 207 -36.175 203.5 -46.175 210.5 -46.175"/><text x="210.5" y="-57.8" font-family="Times,serif" font-size="14" text-anchor="middle">7</text></g><g id="edge10" class="edge"><title>4-&gt;j2</title><path fill="none" stroke="#000" d="M185.645,-93.9156C153.844,-78.8985 93.8918,-50.5878 57.4862,-33.3963"/><polygon fill="#000" stroke="#000" points="58.864 -30.177 48.327 -29.071 55.875 -36.506 58.864 -30.177"/><text x="126.5" y="-57.8" font-family="Times,serif" font-size="14" text-anchor="middle">5</text></g><g id="edge11" class="edge"><title>4-&gt;j3</title><path fill="none" stroke="#000" d="M190.125,-90.7188C172.292,-76.6838 143.991,-54.4092 123.658,-38.4071"/><polygon fill="#000" stroke="#000" points="125.779 -35.622 115.757 -32.188 121.45 -41.123 125.779 -35.622"/><text x="153.5" y="-57.8" font-family="Times,serif" font-size="14" text-anchor="middle">5</text></g><g id="edge12" class="edge"><title>4-&gt;j4</title><path fill="none" stroke="#000" d="M219.872,-88.8037C230.93,-75.7495 247.036,-56.7354 259.647,-41.8473"/><polygon fill="#000" stroke="#000" points="262.446 -43.957 266.239 -34.065 257.105 -39.433 262.446 -43.957"/><text x="258.5" y="-57.8" font-family="Times,serif" font-size="14" text-anchor="middle">5</text></g></g></svg>