<svg xmlns="http://www.w3.org/2000/svg" xmlns:xlink="http://www.w3.org/1999/xlink" width="1440" height="996" viewBox="0 0 1080 746.94"><g id="graph0" class="graph" transform="scale(2.44898 2.44898) rotate(0) translate(4 301)"><title>%3</title><polygon fill="#fff" stroke="none" points="-4 4 -4 -301 437 -301 437 4 -4 4"/><g id="node1" class="node"><title>1</title><ellipse cx="259" cy="-279" fill="none" stroke="#000" rx="27" ry="18"/><text x="259" y="-275.3" font-family="Times,serif" font-size="14" text-anchor="middle">1</text></g><g id="node2" class="node"><title>2</title><ellipse cx="259" cy="-192" fill="none" stroke="#000" rx="27" ry="18"/><text x="259" y="-188.3" font-family="Times,serif" font-size="14" text-anchor="middle">2</text></g><g id="edge1" class="edge"><title>1-&gt;2</title><path fill="none" stroke="#000" d="M259,-260.799C259,-249.163 259,-233.548 259,-220.237"/><polygon fill="#000" stroke="#000" points="262.5 -220.175 259 -210.175 255.5 -220.175 262.5 -220.175"/><text x="262.5" y="-231.8" font-family="Times,serif" font-size="14" text-anchor="middle">3</text></g><g id="node3" class="node"><title>3</title><ellipse cx="112" cy="-192" fill="none" stroke="#000" rx="27" ry="18"/><text x="112" y="-188.3" font-family="Times,serif" font-size="14" text-anchor="middle">3</text></g><g id="edge2" class="edge"><title>1-&gt;3</title><path fill="none" stroke="#000" d="M239.175,-266.537C213.859,-251.898 169.863,-226.458 140.836,-209.674"/><polygon fill="#000" stroke="#000" points="142.389 -206.529 131.98 -204.553 138.885 -212.589 142.389 -206.529"/><text x="198.5" y="-231.8" font-family="Times,serif" font-size="14" text-anchor="middle">2</text></g><g id="node4" class="node"><title>4</title><ellipse cx="406" cy="-192" fill="none" stroke="#000" rx="27" ry="18"/><text x="406" y="-188.3" font-family="Times,serif" font-size="14" text-anchor="middle">4</text></g><g id="edge3" class="edge"><title>1-&gt;4</title><path fill="none" stroke="#000" d="M278.825,-266.537C304.141,-251.898 348.137,-226.458 377.164,-209.674"/><polygon fill="#000" stroke="#000" points="379.115 -212.589 386.02 -204.553 375.611 -206.529 379.115 -212.589"/><text x="344.5" y="-231.8" font-family="Times,serif" font-size="14" text-anchor="middle">2</text></g><g id="node5" class="node"><title>5</title><ellipse cx="186" cy="-105" fill="none" stroke="#000" rx="27" ry="18"/><text x="186" y="-101.3" font-family="Times,serif" font-size="14" text-anchor="middle">5</text></g><g id="edge4" class="edge"><title>2-&gt;5</title><path fill="none" stroke="#000" d="M245.949,-175.804C234.738,-162.75 218.408,-143.735 205.622,-128.847"/><polygon fill="#000" stroke="#000" points="208.108 -126.371 198.938 -121.065 202.798 -130.931 208.108 -126.371"/><text x="229.5" y="-144.8" font-family="Times,serif" font-size="14" text-anchor="middle">5</text></g><g id="node6" class="node"><title>6</title><ellipse cx="322" cy="-105" fill="none" stroke="#000" rx="27" ry="18"/><text x="322" y="-101.3" font-family="Times,serif" font-size="14" text-anchor="middle">6</text></g><g id="edge5" class="edge"><title>2-&gt;6</title><path fill="none" stroke="#000" d="M270.555,-175.41C280.057,-162.589 293.673,-144.219 304.51,-129.597"/><polygon fill="#000" stroke="#000" points="307.375 -131.609 310.518 -121.491 301.752 -127.441 307.375 -131.609"/><text x="297.5" y="-144.8" font-family="Times,serif" font-size="14" text-anchor="middle">1</text></g><g id="edge6" class="edge"><title>3-&gt;5</title><path fill="none" stroke="#000" d="M125.23,-175.804C136.595,-162.75 153.148,-143.735 166.109,-128.847"/><polygon fill="#000" stroke="#000" points="168.958 -130.905 172.885 -121.065 163.679 -126.309 168.958 -130.905"/><text x="87.5" y="-144.8" font-family="Times,serif" font-size="14" text-anchor="middle">1</text></g><g id="edge7" class="edge"><title>3-&gt;6</title><path fill="none" stroke="#000" d="M134.474,-181.904C171.874,-166.765 247.01,-136.353 289.954,-118.971"/><polygon fill="#000" stroke="#000" points="291.414 -122.156 299.371 -115.16 288.788 -115.667 291.414 -122.156"/><text x="196.5" y="-144.8" font-family="Times,serif" font-size="14" text-anchor="middle">3</text></g><g id="node7" class="node"><title>7</title><ellipse cx="39" cy="-105" fill="none" stroke="#000" rx="27" ry="18"/><text x="39" y="-101.3" font-family="Times,serif" font-size="14" text-anchor="middle">7</text></g><g id="edge8" class="edge"><title>3-&gt;7</title><path fill="none" stroke="#000" d="M98.9491,-175.804C87.7378,-162.75 71.408,-143.735 58.6218,-128.847"/><polygon fill="#000" stroke="#000" points="61.108 -126.371 51.938 -121.065 55.798 -130.931 61.108 -126.371"/><text x="3.5" y="-144.8" font-family="Times,serif" font-size="14" text-anchor="middle">1</text></g><g id="edge9" class="edge"><title>4-&gt;6</title><path fill="none" stroke="#000" d="M391.751,-176.581C378.597,-163.271 358.87,-143.309 343.748,-128.007"/><polygon fill="#000" stroke="#000" points="345.838 -125.142 336.319 -120.49 340.859 -130.063 345.838 -125.142"/><text x="372.5" y="-144.8" font-family="Times,serif" font-size="14" text-anchor="middle">1</text></g><g id="node8" class="node"><title>8</title><ellipse cx="186" cy="-18" fill="none" stroke="#000" rx="27" ry="18"/><text x="186" y="-14.3" font-family="Times,serif" font-size="14" text-anchor="middle">8</text></g><g id="edge10" class="edge"><title>5-&gt;8</title><path fill="none" stroke="#000" d="M186,-86.799C186,-75.1626 186,-59.5479 186,-46.2368"/><polygon fill="#000" stroke="#000" points="189.5 -46.175 186 -36.175 182.5 -46.175 189.5 -46.175"/><text x="189.5" y="-57.8" font-family="Times,serif" font-size="14" text-anchor="middle">4</text></g><g id="edge11" class="edge"><title>6-&gt;8</title><path fill="none" stroke="#000" d="M302.803,-92.0019C279.617,-77.5106 240.431,-53.0197 213.907,-36.4416"/><polygon fill="#000" stroke="#000" points="215.434 -33.269 205.099 -30.937 211.724 -39.205 215.434 -33.269"/><text x="265.5" y="-57.8" font-family="Times,serif" font-size="14" text-anchor="middle">2</text></g><g id="edge12" class="edge"><title>7-&gt;8</title><path fill="none" stroke="#000" d="M58.8251,-92.5365C84.1412,-77.898 128.137,-52.458 157.164,-35.6739"/><polygon fill="#000" stroke="#000" points="159.115 -38.589 166.02 -30.553 155.611 -32.529 159.115 -38.589"/><text x="125.5" y="-57.8" font-family="Times,serif" font-size="14" text-anchor="middle">4</text></g></g></svg>